<svg width="205" height="250" viewBox="0 0 205 250" fill="none" xmlns="http://www.w3.org/2000/svg">
<g clip-path="url(#clip0_74_476)">
<path d="M119.903 100.182C120.07 102.577 120.944 104.868 122.413 106.766C123.882 108.665 125.88 110.084 128.156 110.846C130.432 111.608 132.882 111.678 135.197 111.046C137.513 110.415 139.589 109.111 141.163 107.299C142.737 105.488 143.739 103.25 144.042 100.868C144.345 98.4871 143.935 96.0694 142.864 93.9212C141.794 91.7729 140.11 89.9905 138.027 88.7994C135.943 87.6083 133.553 87.062 131.159 87.2296C129.57 87.3401 128.018 87.763 126.592 88.4739C125.166 89.1848 123.893 90.1699 122.848 91.3728C121.803 92.5757 121.005 93.9729 120.499 95.4845C119.994 96.9961 119.791 98.5925 119.903 100.182Z" fill="#808080"/>
<path d="M95.2042 165.642L95.1387 165.567L113.99 142.366C115.743 139.641 114.494 136.477 113.487 134.698L92.7263 105.508C92.1302 104.771 91.8126 103.848 91.8293 102.9C91.846 101.953 92.1958 101.042 92.8175 100.327C93.4391 99.6116 94.2928 99.1385 95.2285 98.9905C96.1642 98.8425 97.1221 99.029 97.9339 99.5173L126.304 113.538V113.493C132.026 116.632 136.407 115.055 138.593 113.75L139.787 112.919C140.019 112.727 140.15 112.601 140.15 112.601C140.148 112.623 140.148 112.645 140.15 112.667L163.473 96.4944C164.128 95.9217 164.953 95.5816 165.82 95.5271C166.593 95.468 167.367 95.6331 168.048 96.0027C168.73 96.3723 169.29 96.9307 169.662 97.6108C170.034 98.291 170.202 99.0641 170.146 99.8374C170.09 100.611 169.812 101.352 169.346 101.971L169.406 102.036L150.666 129.287H150.711C150.648 129.353 150.59 129.422 150.535 129.494L149.719 130.673C148.712 132.386 147.609 135.484 149.789 138.809H149.754L168.213 164.443C168.786 165.192 169.087 166.115 169.065 167.058C169.044 168.001 168.701 168.909 168.094 169.631C167.487 170.354 166.652 170.847 165.727 171.031C164.802 171.214 163.841 171.076 163.005 170.64L141.414 157.541C138.503 156.195 135.183 156.036 132.157 157.098L100.17 172.005C99.5692 172.433 98.8614 172.686 98.1253 172.736C97.2737 172.797 96.4245 172.587 95.7003 172.134C94.9762 171.682 94.4144 171.011 94.0961 170.218C93.7778 169.426 93.7195 168.552 93.9295 167.724C94.1396 166.897 94.6071 166.157 95.2646 165.612L95.2042 165.642Z" fill="#808080"/>
<path d="M119.903 98.3334C120.07 100.728 120.944 103.019 122.413 104.917C123.882 106.816 125.88 108.235 128.156 108.997C130.432 109.759 132.882 109.828 135.197 109.197C137.513 108.566 139.589 107.262 141.163 105.45C142.737 103.639 143.739 101.401 144.042 99.0192C144.345 96.638 143.935 94.2203 142.864 92.0721C141.794 89.9238 140.11 88.1414 138.027 86.9503C135.943 85.7592 133.553 85.2129 131.159 85.3804C129.57 85.491 128.018 85.9139 126.592 86.6248C125.166 87.3357 123.893 88.3208 122.848 89.5237C121.803 90.7266 121.005 92.1238 120.499 93.6354C119.994 95.147 119.791 96.7434 119.903 98.3334Z" fill="white"/>
<path d="M95.2042 163.793L95.1387 163.713L113.99 140.512C115.743 137.787 114.494 134.628 113.487 132.844L92.7263 103.659C92.2635 103.083 91.9675 102.392 91.8706 101.66C91.7737 100.928 91.8797 100.184 92.177 99.5081C92.4742 98.8323 92.9513 98.2512 93.5562 97.8281C94.1611 97.4051 94.8706 97.1563 95.6071 97.1091C96.4204 97.0525 97.2318 97.2439 97.934 97.6583L126.304 111.679V111.634C132.026 114.773 136.407 113.191 138.593 111.886L139.787 111.06C140.019 110.863 140.15 110.742 140.15 110.742C140.148 110.764 140.148 110.786 140.15 110.808L163.473 94.6253C164.226 93.9699 165.196 93.6173 166.194 93.636C167.191 93.6546 168.147 94.043 168.875 94.7261C169.603 95.4091 170.052 96.3381 170.134 97.3331C170.216 98.3281 169.927 99.3183 169.321 100.112L169.381 100.172L150.641 127.423H150.686C150.622 127.486 150.563 127.553 150.51 127.625L149.694 128.809C148.686 130.517 147.583 133.615 149.764 136.94H149.729L168.188 162.579C168.776 163.329 169.088 164.258 169.071 165.211C169.055 166.164 168.71 167.082 168.095 167.81C167.48 168.538 166.633 169.032 165.697 169.208C164.76 169.384 163.792 169.231 162.955 168.776L141.363 155.677C138.453 154.33 135.132 154.171 132.106 155.234L100.12 170.141C99.5352 170.556 98.8507 170.807 98.1367 170.869C97.4227 170.931 96.7052 170.801 96.0581 170.493C95.411 170.185 94.8577 169.71 94.4553 169.117C94.0529 168.523 93.8159 167.834 93.7688 167.118C93.7322 166.491 93.8429 165.863 94.0921 165.285C94.3413 164.708 94.7222 164.197 95.2042 163.793Z" fill="white"/>
<path d="M81.233 98.5703C81.234 100.787 80.5778 102.954 79.3474 104.797C78.117 106.641 76.3677 108.077 74.3208 108.926C72.2738 109.775 70.0212 109.997 67.848 109.565C65.6747 109.133 63.6784 108.066 62.1116 106.498C60.5448 104.931 59.4779 102.934 59.0459 100.76C58.6138 98.586 58.8361 96.3327 59.6845 94.2851C60.5329 92.2375 61.9693 90.4876 63.8121 89.2568C65.6549 88.026 67.8212 87.3696 70.037 87.3706C71.5073 87.3706 72.9632 87.6603 74.3215 88.2231C75.6799 88.786 76.9141 89.6109 77.9538 90.6509C78.9934 91.6909 79.8181 92.9255 80.3808 94.2843C80.9434 95.6431 81.233 97.0995 81.233 98.5703Z" fill="#808080"/>
<path d="M108.183 157.249L108.234 157.173L89.3871 137.021C87.5992 134.623 88.5309 131.63 89.3468 129.927L106.597 101.714C107.024 101.097 107.252 100.364 107.251 99.6131C107.253 98.9332 107.069 98.2657 106.718 97.6832C106.368 97.1007 105.864 96.6253 105.263 96.3086C104.661 95.9919 103.985 95.8461 103.306 95.8868C102.628 95.9276 101.973 96.1535 101.414 96.5399L76.2016 111.271V111.231C71.1652 114.491 67 113.317 64.9049 112.239L63.7515 111.553C63.5198 111.392 63.399 111.286 63.399 111.286V111.342L40.881 97.9506C40.2421 97.4699 39.4643 97.21 38.6649 97.21C37.9511 97.2094 37.2522 97.4142 36.6516 97.7999C36.0509 98.1856 35.5738 98.736 35.277 99.3854C34.9803 100.035 34.8765 100.756 34.978 101.463C35.0795 102.169 35.382 102.832 35.8495 103.372L35.7992 103.437L54.8118 127.318H54.7665C54.7665 127.318 54.8319 127.378 54.9427 127.499L55.7687 128.537C56.776 130.048 58.02 132.829 56.2321 136.023H56.2623L40.9263 160.821C40.446 161.547 40.2281 162.416 40.3084 163.283C40.3888 164.15 40.7627 164.964 41.3683 165.59C41.9738 166.216 42.7748 166.616 43.6386 166.724C44.5025 166.833 45.3775 166.643 46.1189 166.186L65.1466 152.74C67.7424 151.313 70.791 150.952 73.6482 151.732L104.053 163.395C104.632 163.755 105.301 163.945 105.982 163.944C106.77 163.945 107.538 163.696 108.175 163.232C108.812 162.768 109.285 162.115 109.527 161.365C109.769 160.615 109.767 159.807 109.521 159.058C109.275 158.31 108.798 157.659 108.158 157.198L108.183 157.249Z" fill="#808080"/>
<path d="M80.8906 96.7314C80.8916 98.9477 80.2355 101.115 79.0053 102.958C77.7751 104.801 76.0261 106.238 73.9795 107.087C71.9328 107.936 69.6805 108.158 67.5074 107.726C65.3342 107.295 63.3379 106.228 61.7709 104.661C60.2039 103.094 59.1366 101.098 58.704 98.9242C58.2714 96.7506 58.4929 94.4974 59.3406 92.4498C60.1882 90.4021 61.6239 88.6518 63.466 87.4204C65.3081 86.189 67.4739 85.5317 69.6895 85.5317C72.6593 85.5317 75.5076 86.7115 77.6081 88.8117C79.7085 90.9119 80.8892 93.7606 80.8906 96.7314Z" fill="white"/>
<path d="M107.841 155.395L107.891 155.319L89.0446 135.167C87.2516 132.769 88.1884 129.776 88.9993 128.068L106.249 99.8549C106.632 99.2951 106.855 98.6413 106.894 97.964C106.934 97.2867 106.787 96.6116 106.471 96.0114C106.155 95.4111 105.681 94.9086 105.101 94.5578C104.52 94.207 103.855 94.0213 103.177 94.0208C102.426 94.0372 101.698 94.2795 101.087 94.716L75.8491 109.427V109.387C70.8126 112.642 66.6575 111.473 64.5523 110.395L63.409 109.709C63.2852 109.625 63.1659 109.534 63.0514 109.437V109.498L40.5334 96.1267C39.8946 95.6423 39.114 95.382 38.3123 95.3861C37.8231 95.3861 37.3387 95.4825 36.8869 95.67C36.435 95.8574 36.0244 96.1321 35.6787 96.4783C35.3331 96.8246 35.059 97.2356 34.8723 97.6879C34.6855 98.1402 34.5897 98.6249 34.5904 99.1143C34.5895 100.011 34.9174 100.877 35.5121 101.548L35.4567 101.608L54.4643 125.494H54.4189L54.6003 125.67L55.4162 126.708C56.4537 128.219 57.6775 131.005 55.8846 134.199H55.9097L40.5737 158.997C40.1586 159.619 39.9393 160.35 39.9442 161.098C39.9453 161.777 40.1269 162.443 40.4705 163.029C40.814 163.615 41.307 164.098 41.899 164.431C42.491 164.763 43.1606 164.932 43.8393 164.92C44.518 164.908 45.1813 164.715 45.7613 164.363L64.8243 150.936C67.418 149.509 70.4653 149.147 73.3208 149.928L103.731 161.597C104.295 161.942 104.941 162.13 105.601 162.142C106.262 162.154 106.914 161.99 107.491 161.666C108.067 161.342 108.546 160.87 108.88 160.299C109.213 159.728 109.388 159.079 109.387 158.418C109.386 157.827 109.245 157.246 108.977 156.72C108.708 156.195 108.319 155.741 107.841 155.395Z" fill="white"/>
<path d="M92.7212 136.315C92.8297 137.868 93.3959 139.354 94.3485 140.585C95.301 141.815 96.5971 142.736 98.0727 143.23C99.5483 143.724 101.137 143.769 102.638 143.36C104.14 142.95 105.486 142.105 106.507 140.93C107.527 139.755 108.177 138.304 108.373 136.76C108.569 135.216 108.304 133.648 107.609 132.255C106.915 130.862 105.823 129.707 104.472 128.934C103.121 128.162 101.571 127.808 100.019 127.917C97.9386 128.064 96.0015 129.031 94.6332 130.606C93.2649 132.181 92.5773 134.234 92.7212 136.315Z" fill="#808080"/>
<path d="M76.7003 178.771L76.66 178.721L88.8885 163.677C90.0217 161.909 89.2159 159.853 88.5662 158.705L75.0936 139.767C74.7619 139.358 74.5664 138.856 74.5346 138.331C74.5078 137.987 74.5496 137.641 74.6574 137.313C74.7653 136.985 74.9371 136.682 75.1628 136.421C75.3886 136.16 75.6639 135.946 75.9727 135.792C76.2816 135.638 76.6179 135.547 76.9622 135.525C77.4901 135.484 78.0176 135.607 78.4731 135.877L96.8662 144.946V144.916C100.578 146.956 103.414 145.923 104.839 145.082L105.62 144.593C105.702 144.531 105.779 144.464 105.851 144.392V144.432L120.961 133.938C121.449 133.516 122.077 133.29 122.722 133.303C123.368 133.316 123.985 133.568 124.456 134.01C124.927 134.451 125.218 135.052 125.273 135.695C125.328 136.338 125.142 136.979 124.753 137.494L124.793 137.54L112.671 155.198H112.706C112.664 155.239 112.625 155.282 112.59 155.329L112.061 156.095C111.555 156.883 111.29 157.802 111.298 158.739C111.306 159.676 111.587 160.59 112.107 161.37L124.073 177.996C124.395 178.41 124.585 178.912 124.617 179.436C124.643 179.789 124.599 180.143 124.488 180.478C124.376 180.813 124.2 181.123 123.968 181.389C123.736 181.656 123.454 181.874 123.137 182.031C122.821 182.188 122.476 182.28 122.124 182.303C121.63 182.341 121.136 182.238 120.699 182.006L106.627 173.537C104.74 172.662 102.585 172.559 100.623 173.25L79.8833 182.918C79.4915 183.191 79.0346 183.356 78.5587 183.396C77.8657 183.443 77.1823 183.214 76.6583 182.758C76.1343 182.301 75.8125 181.656 75.7635 180.963C75.7332 180.549 75.8024 180.135 75.9654 179.753C76.1284 179.372 76.3804 179.035 76.7003 178.771Z" fill="#808080"/>
<path d="M92.7212 134.366C92.8326 135.918 93.4012 137.402 94.3554 138.63C95.3096 139.859 96.6064 140.777 98.082 141.269C99.5577 141.76 101.146 141.804 102.646 141.393C104.146 140.982 105.491 140.135 106.51 138.96C107.529 137.785 108.178 136.334 108.373 134.79C108.568 133.247 108.301 131.68 107.607 130.288C106.912 128.896 105.821 127.741 104.47 126.969C103.119 126.198 101.571 125.844 100.019 125.952C98.9868 126.023 97.9787 126.297 97.0527 126.759C96.1266 127.221 95.3009 127.861 94.6228 128.642C93.9447 129.424 93.4277 130.332 93.1013 131.314C92.775 132.297 92.6458 133.334 92.7212 134.366Z" fill="white"/>
<path d="M76.7002 176.837L76.66 176.782L88.8885 161.723C90.0217 159.954 89.2159 157.904 88.5662 156.745L75.0936 137.817C74.7609 137.407 74.5654 136.903 74.5346 136.376C74.4992 135.9 74.5951 135.422 74.8118 134.997C75.0285 134.571 75.3577 134.212 75.7636 133.96C76.1696 133.709 76.6368 133.573 77.1145 133.568C77.5921 133.563 78.062 133.689 78.4731 133.933L96.8662 143.026V142.996C100.578 145.011 103.414 144.004 104.839 143.162L105.62 142.628C105.702 142.564 105.78 142.493 105.851 142.417V142.462L120.961 131.973C121.446 131.535 122.078 131.295 122.731 131.301C123.385 131.307 124.012 131.558 124.49 132.005C124.967 132.451 125.26 133.06 125.309 133.712C125.359 134.364 125.162 135.011 124.758 135.525L124.798 135.565L112.671 153.244H112.706C112.706 153.244 112.661 153.289 112.59 153.375L112.061 154.14C111.556 154.929 111.291 155.848 111.299 156.785C111.307 157.721 111.588 158.635 112.107 159.415L124.073 176.041C124.395 176.458 124.585 176.961 124.617 177.487C124.652 177.964 124.559 178.441 124.348 178.87C124.136 179.299 123.814 179.663 123.414 179.925C123.014 180.187 122.552 180.338 122.074 180.361C121.597 180.384 121.122 180.279 120.699 180.056L106.627 171.582C104.739 170.709 102.585 170.608 100.623 171.3L79.8833 180.963C79.3322 181.365 78.6461 181.535 77.9713 181.438C77.2965 181.34 76.6864 180.983 76.2711 180.442C75.8559 179.901 75.6683 179.219 75.7485 178.542C75.8287 177.865 76.1702 177.246 76.7002 176.817V176.837Z" fill="white"/>
<path d="M44.477 202.385C44.0992 199.614 41.9587 198.153 38.9369 198.153C34.3184 198.153 32.5506 202.234 32.5506 206.315C32.5506 210.396 34.3184 214.477 38.9369 214.477C42.2912 214.477 44.21 212.557 44.477 209.398H51.6388C51.2561 216.482 46.0635 220.633 39.093 220.633C30.7778 220.633 25.3938 214.285 25.3938 206.315C25.3938 198.345 30.7778 191.997 39.093 191.997C45.0209 191.997 51.4424 195.77 51.6388 202.385H44.477Z" fill="white"/>
<path d="M60.9865 192.576H68.2591L78.5386 220.059H71.0745L69.3571 215.126H59.7878L58.0553 220.049H50.7222L60.9865 192.576ZM61.4499 209.816H67.69L64.643 200.194H64.5674L61.4499 209.816Z" fill="white"/>
<path d="M84.2751 210.824C84.4262 214.053 86.4256 215.091 89.4677 215.091C91.6233 215.091 93.8594 214.32 93.8594 212.28C93.8594 209.862 89.931 209.398 85.9673 208.28C82.0036 207.161 77.909 205.393 77.909 200.35C77.909 194.344 83.9527 191.997 89.1151 191.997C94.5797 191.997 100.085 194.647 100.12 200.849H92.973C93.0838 198.329 90.7368 197.533 88.546 197.533C87.0048 197.533 85.0809 198.078 85.0809 199.886C85.0809 202.007 89.0496 202.405 93.0486 203.504C97.0475 204.602 101.016 206.471 101.016 211.434C101.016 218.406 95.0883 220.633 89.0496 220.633C82.7339 220.633 77.1535 217.867 77.1132 210.824H84.2751Z" fill="white"/>
<path d="M109.906 192.576H117.203L127.478 220.059H119.989L118.296 215.126H108.727L106.995 220.049H99.6313L109.906 192.576ZM110.369 209.816H116.604L113.557 200.194H113.482L110.369 209.816Z" fill="white"/>
<path d="M127.609 192.576H139.424C147.85 192.576 152.892 197.695 152.892 206.204C152.892 215.212 147.775 220.059 139.424 220.059H127.609V192.576ZM134.766 213.902H138.155C143.579 213.786 145.71 211.665 145.71 206.164C145.71 201.156 143.015 198.732 138.155 198.732H134.766V213.902Z" fill="white"/>
<path d="M167.402 191.997C176.065 191.997 180.95 198.35 180.95 206.315C180.95 214.28 176.065 220.633 167.402 220.633C158.739 220.633 153.854 214.285 153.854 206.315C153.854 198.345 158.739 191.997 167.402 191.997ZM167.402 214.477C172.02 214.477 173.793 210.401 173.793 206.315C173.793 202.229 172.02 198.153 167.402 198.153C162.783 198.153 161.021 202.234 161.021 206.315C161.021 210.396 162.783 214.477 167.402 214.477Z" fill="white"/>
<path d="M204.717 94.1619L173.048 65.2332L148.173 42.6021L101.313 0L52.5957 45.2773V31.2765H32.4046V64.0391L0 94.1619H21.2891L101.057 20.1423L128.737 44.8289L128.807 45.0455L134.967 50.3859L139.263 54.2249L139.308 54.1645L185.357 94.1619H204.717Z" fill="white"/>
<path d="M41.8933 232.966C41.5357 230.366 39.5211 229.006 36.7158 229.006C32.4046 229.006 30.7526 232.815 30.7526 236.629C30.7526 240.443 32.4046 244.246 36.7158 244.246C39.8434 244.246 41.6414 242.453 41.8933 239.501H48.5716C48.2191 246.116 43.3689 250 36.8618 250C29.1007 250 24.0642 244.065 24.0642 236.629C24.0642 229.193 29.1007 223.253 36.8618 223.253C42.402 223.253 48.3953 226.779 48.5716 232.966H41.8933Z" fill="white"/>
<path d="M50.3394 223.792H57.0178V249.461H50.3394V223.792Z" fill="white"/>
<path d="M59.8633 223.792H70.8982C78.7702 223.792 83.4894 228.573 83.4894 236.518C83.4894 244.927 78.7098 249.461 70.8982 249.461H59.8633V223.792ZM66.5467 243.708H69.7046C74.7763 243.597 76.7859 241.622 76.7859 236.483C76.7859 231.808 74.2676 229.54 69.7046 229.54H66.5467V243.708Z" fill="white"/>
<path d="M92.3183 223.792H99.1024L108.697 249.461H101.731L100.15 244.851H91.2053L89.5835 249.456H82.7138L92.3183 223.792ZM92.7464 239.914H98.5686L95.728 230.921H95.6575L92.7464 239.914Z" fill="white"/>
<path d="M108.848 223.792H119.883C127.75 223.792 132.474 228.573 132.474 236.518C132.474 244.927 127.694 249.461 119.883 249.461H108.848V223.792ZM115.531 243.708H118.714C123.751 243.597 125.765 241.622 125.765 236.483C125.765 231.808 123.247 229.54 118.714 229.54H115.546L115.531 243.708Z" fill="white"/>
<path d="M141.303 223.792H148.092L157.687 249.461H150.721L149.14 244.851H140.185L138.568 249.456H131.708L141.303 223.792ZM151.507 217.217C151.184 219.656 149.961 221.782 147.231 221.782C146.229 221.746 145.242 221.525 144.32 221.132C143.595 220.79 142.819 220.571 142.023 220.482C141.197 220.482 140.578 221.273 140.437 222.099H137.888C138.175 219.762 139.681 217.217 142.24 217.217C143.231 217.284 144.204 217.526 145.11 217.933C145.843 218.315 146.635 218.569 147.452 218.683C147.833 218.647 148.191 218.482 148.465 218.216C148.74 217.949 148.916 217.597 148.963 217.217H151.507ZM141.736 239.889H147.553L144.718 230.896H144.642L141.736 239.889Z" fill="white"/>
<path d="M169.517 223.253C177.606 223.253 182.164 229.183 182.164 236.629C182.164 244.075 177.606 250 169.517 250C161.429 250 156.861 244.065 156.861 236.629C156.861 229.193 161.424 223.253 169.517 223.253ZM169.517 244.246C173.828 244.246 175.48 240.438 175.48 236.629C175.48 232.82 173.828 229.006 169.517 229.006C165.206 229.006 163.539 232.815 163.539 236.629C163.539 240.443 165.201 244.246 169.517 244.246Z" fill="white"/>
</g>
<defs>
<clipPath id="clip0_74_476">
<rect width="204.717" height="250" fill="white"/>
</clipPath>
</defs>
</svg>
