<svg width="103" height="126" viewBox="0 0 103 126" fill="none" xmlns="http://www.w3.org/2000/svg">
<g clip-path="url(#clip0_3_32)">
<path d="M60.1115 50.3021C60.1953 51.5045 60.6331 52.6549 61.3696 53.608C62.1061 54.561 63.1081 55.2739 64.249 55.6564C65.3899 56.0389 66.6183 56.0738 67.779 55.7568C68.9397 55.4398 69.9805 54.7851 70.7698 53.8755C71.5591 52.9658 72.0614 51.8421 72.2132 50.6465C72.3651 49.4508 72.1596 48.2369 71.6228 47.1583C71.0859 46.0796 70.2419 45.1847 69.1974 44.5866C68.1529 43.9886 66.9548 43.7142 65.7547 43.7984C64.9578 43.8539 64.1797 44.0662 63.4647 44.4232C62.7498 44.7801 62.112 45.2747 61.5879 45.8787C61.0639 46.4827 60.6637 47.1842 60.4104 47.9432C60.157 48.7022 60.0555 49.5038 60.1115 50.3021Z" fill="#9CB227"/>
<path d="M47.7291 83.1698L47.6963 83.1319L57.1471 71.4829C58.0258 70.1143 57.3996 68.5257 56.8946 67.6327L46.4868 52.9759C46.188 52.6061 46.0288 52.1426 46.0371 51.6669C46.0455 51.1912 46.2209 50.7336 46.5325 50.3746C46.8442 50.0155 47.2722 49.778 47.7413 49.7037C48.2103 49.6294 48.6906 49.723 49.0976 49.9682L63.3206 57.0082V56.9854C66.189 58.5614 68.3857 57.7696 69.4815 57.1144L70.0799 56.6971C70.1961 56.6009 70.2617 56.5377 70.2617 56.5377C70.2611 56.5486 70.2611 56.5596 70.2617 56.5706L81.9548 48.4504C82.2827 48.1628 82.6964 47.9921 83.1314 47.9647C83.5188 47.935 83.9066 48.0179 84.2482 48.2035C84.5898 48.3891 84.8708 48.6694 85.0573 49.0109C85.2439 49.3525 85.3282 49.7406 85.3001 50.1289C85.272 50.5172 85.1327 50.8892 84.8988 51.2001L84.9291 51.233L75.5338 64.9159H75.5565C75.5252 64.9488 75.4957 64.9834 75.4682 65.0196L75.0591 65.6115C74.5541 66.4716 74.0012 68.0273 75.0945 69.6969H75.0768L84.3307 82.5678C84.6182 82.944 84.7689 83.4071 84.7581 83.8808C84.7473 84.3544 84.5755 84.8102 84.2712 85.1728C83.967 85.5355 83.5483 85.7833 83.0844 85.8754C82.6206 85.9674 82.1393 85.8983 81.7199 85.6792L70.8955 79.1022C69.4363 78.4261 67.7716 78.3463 66.2546 78.8796L50.2187 86.3648C49.9174 86.5797 49.5625 86.7066 49.1936 86.7316C48.7666 86.7625 48.3409 86.6567 47.9778 86.4295C47.6148 86.2023 47.3331 85.8654 47.1736 85.4675C47.014 85.0695 46.9848 84.6311 47.0901 84.2154C47.1953 83.7997 47.4297 83.4282 47.7594 83.1547L47.7291 83.1698Z" fill="#9CB227"/>
<path d="M60.1115 49.3737C60.1953 50.5761 60.6331 51.7266 61.3696 52.6796C62.1061 53.6327 63.1081 54.3455 64.249 54.728C65.3899 55.1105 66.6183 55.1455 67.779 54.8285C68.9397 54.5115 69.9805 53.8567 70.7698 52.9471C71.5591 52.0375 72.0614 50.9138 72.2132 49.7181C72.3651 48.5225 72.1596 47.3085 71.6228 46.2299C71.0859 45.1512 70.2419 44.2563 69.1974 43.6582C68.1529 43.0602 66.9548 42.7859 65.7547 42.87C64.9578 42.9255 64.1797 43.1378 63.4647 43.4948C62.7498 43.8517 62.112 44.3463 61.5879 44.9503C61.0639 45.5543 60.6637 46.2559 60.4104 47.0148C60.157 47.7738 60.0555 48.5754 60.1115 49.3737Z" fill="#BFD730"/>
<path d="M47.7291 82.2415L47.6963 82.201L57.1472 70.5519C58.0259 69.1834 57.3997 67.5973 56.8947 66.7018L46.4869 52.0476C46.2548 51.7588 46.1064 51.4117 46.0579 51.0442C46.0093 50.6767 46.0624 50.3029 46.2115 49.9636C46.3605 49.6242 46.5997 49.3324 46.9029 49.12C47.2062 48.9076 47.5619 48.7827 47.9311 48.759C48.3389 48.7306 48.7456 48.8267 49.0976 49.0347L63.3207 56.0748V56.052C66.189 57.628 68.3857 56.8337 69.4816 56.1785L70.08 55.7636C70.1961 55.665 70.2618 55.6042 70.2618 55.6042C70.2612 55.6152 70.2612 55.6262 70.2618 55.6371L81.9548 47.5119C82.3323 47.1828 82.8182 47.0058 83.3185 47.0151C83.8188 47.0245 84.2978 47.2195 84.6628 47.5625C85.0277 47.9054 85.2526 48.3719 85.2939 48.8715C85.3352 49.3711 85.1899 49.8683 84.8863 50.2667L84.9166 50.297L75.5212 63.9799H75.544C75.5121 64.0115 75.4826 64.0453 75.4556 64.0811L75.0465 64.6756C74.5416 65.5331 73.9886 67.0889 75.0819 68.7584H75.0642L84.3182 81.6318C84.6133 82.0081 84.7698 82.4749 84.7613 82.9533C84.7528 83.4318 84.5799 83.8927 84.2717 84.2583C83.9634 84.6239 83.5388 84.8717 83.0693 84.9601C82.5999 85.0484 82.1144 84.9719 81.6947 84.7433L70.8703 78.1662C69.4111 77.4902 67.7464 77.4103 66.2294 77.9436L50.1935 85.4288C49.9004 85.637 49.5572 85.7631 49.1993 85.7942C48.8414 85.8252 48.4816 85.76 48.1572 85.6054C47.8328 85.4507 47.5554 85.2122 47.3537 84.9144C47.1519 84.6165 47.0331 84.2702 47.0095 83.911C46.9911 83.5958 47.0466 83.2806 47.1716 82.9907C47.2965 82.7008 47.4875 82.4442 47.7291 82.2415Z" fill="#BFD730"/>
<path d="M40.7249 49.4926C40.7254 50.6055 40.3964 51.6936 39.7795 52.6192C39.1627 53.5447 38.2857 54.2662 37.2595 54.6923C36.2333 55.1185 35.104 55.2301 34.0145 55.0131C32.9249 54.7961 31.9241 54.2602 31.1386 53.4733C30.3531 52.6863 29.8183 51.6837 29.6017 50.5921C29.3851 49.5005 29.4965 48.3691 29.9218 47.341C30.3472 46.3129 31.0673 45.4343 31.9912 44.8163C32.915 44.1983 34.0011 43.8687 35.1119 43.8692C35.849 43.8692 36.5789 44.0147 37.2599 44.2973C37.9409 44.5799 38.5596 44.9941 39.0809 45.5163C39.6021 46.0384 40.0155 46.6584 40.2976 47.3406C40.5797 48.0229 40.7249 48.7541 40.7249 49.4926Z" fill="#DB5C1E"/>
<path d="M54.2359 78.9555L54.2612 78.9175L44.8128 68.7989C43.9165 67.5948 44.3836 66.0922 44.7926 65.2372L53.4406 51.0711C53.6547 50.7612 53.7693 50.3932 53.7688 50.0163C53.7697 49.6749 53.6773 49.3397 53.5015 49.0472C53.3258 48.7547 53.0735 48.516 52.7719 48.357C52.4704 48.198 52.1311 48.1248 51.791 48.1453C51.4508 48.1657 51.1228 48.2791 50.8424 48.4732L38.2025 55.8699V55.8496C35.6775 57.4863 33.5894 56.8969 32.539 56.3556L31.9608 56.0115C31.8447 55.9306 31.7841 55.8775 31.7841 55.8775V55.9053L20.495 49.1815C20.1747 48.9401 19.7848 48.8096 19.3841 48.8096C19.0262 48.8094 18.6758 48.9122 18.3747 49.1058C18.0736 49.2995 17.8344 49.5758 17.6856 49.9019C17.5368 50.228 17.4848 50.59 17.5357 50.9449C17.5866 51.2997 17.7382 51.6325 17.9726 51.9034L17.9474 51.9363L27.479 63.9268H27.4563C27.4563 63.9268 27.4891 63.9572 27.5447 64.0179L27.9588 64.539C28.4638 65.2979 29.0874 66.6943 28.1911 68.298H28.2062L20.5178 80.749C20.277 81.1137 20.1677 81.5499 20.208 81.9853C20.2483 82.4207 20.4358 82.8293 20.7393 83.1435C21.0429 83.4577 21.4445 83.6587 21.8776 83.7131C22.3106 83.7676 22.7493 83.6723 23.121 83.4431L32.6602 76.6914C33.9616 75.9751 35.4899 75.7937 36.9223 76.1855L52.1655 82.0416C52.4558 82.2222 52.7908 82.3177 53.1325 82.3174C53.5275 82.3177 53.9123 82.1924 54.2317 81.9596C54.5511 81.7269 54.7885 81.3985 54.9098 81.022C55.0311 80.6454 55.0299 80.24 54.9066 79.8641C54.7832 79.4882 54.544 79.1612 54.2233 78.9302L54.2359 78.9555Z" fill="#DB5C1E"/>
<path d="M40.5532 48.5693C40.5537 49.6821 40.2248 50.7701 39.608 51.6956C38.9913 52.6211 38.1145 53.3426 37.0884 53.7688C36.0624 54.195 34.9332 54.3067 33.8437 54.0899C32.7543 53.8732 31.7534 53.3375 30.9678 52.5508C30.1822 51.7641 29.6472 50.7617 29.4303 49.6703C29.2134 48.5789 29.3245 47.4476 29.7494 46.4194C30.1744 45.3913 30.8941 44.5125 31.8176 43.8942C32.7412 43.2759 33.827 42.9459 34.9377 42.9459C36.4266 42.9459 37.8545 43.5382 38.9076 44.5928C39.9606 45.6473 40.5525 47.0776 40.5532 48.5693Z" fill="#F26522"/>
<path d="M54.0642 78.0245L54.0895 77.9866L44.6411 67.868C43.7422 66.6639 44.2119 65.1613 44.6184 64.3037L53.2663 50.1377C53.4584 49.8566 53.5703 49.5283 53.5899 49.1883C53.6095 48.8482 53.5361 48.5092 53.3777 48.2078C53.2192 47.9065 52.9816 47.6541 52.6906 47.478C52.3996 47.3019 52.0661 47.2086 51.7261 47.2083C51.3498 47.2166 50.9846 47.3382 50.6783 47.5574L38.0258 54.944V54.9238C35.5008 56.5579 33.4177 55.971 32.3623 55.4297L31.7891 55.0857C31.7271 55.0432 31.6672 54.9977 31.6099 54.9491V54.9794L20.3208 48.2657C20.0005 48.0225 19.6092 47.8918 19.2073 47.8939C18.9621 47.8939 18.7192 47.9423 18.4927 48.0364C18.2661 48.1305 18.0603 48.2685 17.887 48.4423C17.7137 48.6162 17.5763 48.8226 17.4827 49.0497C17.3891 49.2767 17.341 49.5201 17.3414 49.7658C17.3409 50.216 17.5053 50.6508 17.8034 50.9876L17.7757 51.018L27.3048 63.0111H27.2821L27.373 63.0996L27.782 63.6207C28.3022 64.3796 28.9157 65.7785 28.0169 67.3823H28.0295L20.341 79.8332C20.1329 80.1453 20.023 80.5128 20.0254 80.8881C20.026 81.229 20.117 81.5637 20.2892 81.8577C20.4615 82.1518 20.7086 82.3947 21.0054 82.5615C21.3022 82.7283 21.6379 82.8131 21.9782 82.8071C22.3184 82.8011 22.651 82.7045 22.9417 82.5273L32.4986 75.7858C33.799 75.0691 35.3267 74.8876 36.7582 75.2799L52.0039 81.1385C52.2866 81.3117 52.6103 81.4063 52.9416 81.4124C53.2729 81.4185 53.5999 81.336 53.8888 81.1734C54.1777 81.0107 54.4181 80.7739 54.5852 80.4872C54.7522 80.2005 54.84 79.8743 54.8394 79.5423C54.8389 79.246 54.7685 78.954 54.6337 78.6902C54.499 78.4264 54.3039 78.1983 54.0642 78.0245Z" fill="#F26522"/>
<path d="M46.4843 68.4447C46.5386 69.2244 46.8225 69.9704 47.3001 70.5883C47.7776 71.2063 48.4274 71.6685 49.1671 71.9165C49.9069 72.1645 50.7035 72.1872 51.4561 71.9816C52.2087 71.776 52.8835 71.3515 53.3953 70.7616C53.9071 70.1718 54.2327 69.4431 54.3311 68.6678C54.4295 67.8926 54.2962 67.1054 53.9481 66.406C53.6 65.7067 53.0526 65.1264 52.3753 64.7387C51.698 64.351 50.9211 64.1732 50.1429 64.2278C49.0999 64.3017 48.1288 64.7873 47.4428 65.5779C46.7568 66.3686 46.4121 67.3997 46.4843 68.4447Z" fill="#002E6E"/>
<path d="M38.4525 89.7621L38.4323 89.7368L44.5628 82.1833C45.1309 81.2954 44.727 80.2633 44.4012 79.6865L37.647 70.1776C37.4807 69.9725 37.3827 69.7204 37.3667 69.4566C37.3533 69.2838 37.3743 69.1101 37.4283 68.9455C37.4824 68.7809 37.5685 68.6287 37.6817 68.4976C37.7949 68.3666 37.9329 68.2593 38.0877 68.1821C38.2426 68.1048 38.4112 68.0591 38.5838 68.0476C38.8484 68.0273 39.1129 68.0891 39.3412 68.2247L48.5623 72.7781V72.7629C50.4232 73.7874 51.8448 73.2688 52.5593 72.8464L52.9507 72.601C52.9918 72.5701 53.0306 72.5362 53.0669 72.4998V72.52L60.6417 67.2508C60.8867 67.039 61.2013 66.9255 61.5248 66.9322C61.8484 66.9389 62.158 67.0653 62.3941 67.287C62.6301 67.5088 62.776 67.8102 62.8035 68.1333C62.831 68.4563 62.7382 68.7781 62.543 69.0367L62.5632 69.0595L56.4856 77.9259H56.5033C56.4822 77.9462 56.4628 77.9682 56.4452 77.9917L56.1801 78.3762C55.9264 78.772 55.7933 79.2334 55.7974 79.7038C55.8014 80.1743 55.9423 80.6333 56.2028 81.0247L62.2021 89.3726C62.3635 89.5808 62.4585 89.8329 62.4748 90.096C62.4879 90.2729 62.4658 90.4507 62.4099 90.619C62.354 90.7873 62.2655 90.9428 62.1493 91.0766C62.0331 91.2105 61.8915 91.3199 61.7329 91.3986C61.5743 91.4774 61.4016 91.5239 61.225 91.5354C60.9775 91.5543 60.7297 91.5026 60.5104 91.3862L53.4557 87.1338C52.5096 86.6945 51.4296 86.6428 50.446 86.9896L40.0482 91.844C39.8518 91.9813 39.6228 92.0642 39.3842 92.0843C39.0367 92.108 38.6941 91.9926 38.4314 91.7636C38.1687 91.5346 38.0074 91.2105 37.9828 90.8625C37.9676 90.6549 38.0023 90.4466 38.0841 90.2551C38.1658 90.0636 38.2921 89.8946 38.4525 89.7621Z" fill="#002E6E"/>
<path d="M46.4843 67.4658C46.5401 68.245 46.8252 68.9901 47.3036 69.607C47.7819 70.2239 48.4321 70.6849 49.1718 70.9318C49.9116 71.1786 50.7079 71.2002 51.4599 70.9939C52.2119 70.7876 52.8861 70.3625 53.3971 69.7725C53.9081 69.1824 54.2331 68.4539 54.3309 67.6788C54.4288 66.9038 54.2951 66.1171 53.9469 65.4182C53.5986 64.7193 53.0514 64.1394 52.3743 63.7519C51.6973 63.3645 50.9208 63.1868 50.1429 63.2413C49.6254 63.2769 49.12 63.4145 48.6558 63.6463C48.1915 63.8781 47.7776 64.1995 47.4376 64.592C47.0977 64.9845 46.8384 65.4405 46.6748 65.9336C46.5112 66.4268 46.4465 66.9475 46.4843 67.4658Z" fill="#034EA2"/>
<path d="M38.4524 88.7907L38.4322 88.7629L44.5628 81.2018C45.1309 80.3139 44.7269 79.2843 44.4012 78.7025L37.647 69.1986C37.4802 68.9928 37.3821 68.7397 37.3667 68.4751C37.349 68.2358 37.397 67.9962 37.5057 67.7824C37.6143 67.5686 37.7793 67.3887 37.9829 67.2622C38.1864 67.1357 38.4206 67.0676 38.6601 67.0651C38.8996 67.0626 39.1351 67.126 39.3412 67.2482L48.5623 71.8142V71.7991C50.4232 72.8109 51.8447 72.305 52.5593 71.8825L52.9507 71.6144C52.992 71.582 53.0309 71.5465 53.0668 71.5081V71.5309L60.6417 66.2642C60.885 66.0443 61.2018 65.924 61.5294 65.9269C61.857 65.9299 62.1716 66.0559 62.4109 66.2801C62.6502 66.5043 62.7969 66.8103 62.8218 67.1376C62.8467 67.4649 62.7481 67.7896 62.5455 68.0476L62.5657 68.0678L56.4856 76.9444H56.5033C56.5033 76.9444 56.4805 76.9671 56.4452 77.0101L56.1801 77.3946C55.9266 77.7906 55.7938 78.2519 55.7978 78.7223C55.8019 79.1927 55.9426 79.6517 56.2028 80.0432L62.2021 88.391C62.3635 88.6002 62.4585 88.8531 62.4748 89.117C62.4924 89.3565 62.4457 89.5962 62.3396 89.8115C62.2336 90.0268 62.072 90.2097 61.8716 90.3413C61.6712 90.4729 61.4393 90.5484 61.1999 90.56C60.9606 90.5716 60.7225 90.5188 60.5104 90.4072L53.4557 86.1523C52.5091 85.7141 51.4293 85.6632 50.4459 86.0106L40.0482 90.8625C39.7719 91.0641 39.4279 91.1496 39.0896 91.1008C38.7513 91.0519 38.4455 90.8725 38.2373 90.6009C38.0291 90.3293 37.9351 89.987 37.9753 89.6469C38.0155 89.3069 38.1867 88.996 38.4524 88.7806V88.7907Z" fill="#034EA2"/>
<path d="M22.2978 101.619C22.1084 100.227 21.0353 99.4937 19.5204 99.4937C17.205 99.4937 16.3187 101.543 16.3187 103.592C16.3187 105.641 17.205 107.69 19.5204 107.69C21.202 107.69 22.164 106.726 22.2978 105.14H25.8883C25.6964 108.697 23.0932 110.781 19.5986 110.781C15.4299 110.781 12.7308 107.594 12.7308 103.592C12.7308 99.5898 15.4299 96.4025 19.5986 96.4025C22.5705 96.4025 25.7898 98.2972 25.8883 101.619H22.2978Z" fill="#F26522"/>
<path d="M30.5746 96.6934H34.2206L39.3741 110.493H35.6321L34.7711 108.016H29.9737L29.1051 110.488H25.4288L30.5746 96.6934ZM30.8069 105.35H33.9353L32.4077 100.518H32.3699L30.8069 105.35Z" fill="#F26522"/>
<path d="M42.25 105.856C42.3257 107.477 43.3281 107.998 44.8532 107.998C45.9339 107.998 47.0549 107.611 47.0549 106.587C47.0549 105.373 45.0855 105.14 43.0983 104.578C41.1112 104.017 39.0584 103.129 39.0584 100.597C39.0584 97.5813 42.0884 96.4025 44.6764 96.4025C47.416 96.4025 50.1758 97.7331 50.1934 100.847H46.6106C46.6661 99.5822 45.4895 99.1826 44.3911 99.1826C43.6185 99.1826 42.654 99.4558 42.654 100.364C42.654 101.429 44.6436 101.629 46.6484 102.18C48.6532 102.732 50.6429 103.67 50.6429 106.162C50.6429 109.663 47.671 110.781 44.6436 110.781C41.4773 110.781 38.6797 109.392 38.6595 105.856H42.25Z" fill="#F26522"/>
<path d="M55.0994 96.6934H58.7581L63.909 110.493H60.1544L59.306 108.016H54.5086L53.64 110.488H49.9485L55.0994 96.6934ZM55.3317 105.35H58.4576L56.93 100.518H56.8922L55.3317 105.35Z" fill="#F26522"/>
<path d="M63.9746 96.6934H69.8981C74.1224 96.6934 76.6498 99.2635 76.6498 103.536C76.6498 108.059 74.0845 110.493 69.8981 110.493H63.9746V96.6934ZM67.5626 107.401H69.2618C71.9812 107.343 73.0493 106.278 73.0493 103.516C73.0493 101.001 71.6984 99.7846 69.2618 99.7846H67.5626V107.401Z" fill="#BFD730"/>
<path d="M83.9243 96.4025C88.2672 96.4025 90.7164 99.5924 90.7164 103.592C90.7164 107.591 88.2672 110.781 83.9243 110.781C79.5813 110.781 77.1321 107.594 77.1321 103.592C77.1321 99.5898 79.5813 96.4025 83.9243 96.4025ZM83.9243 107.69C86.2396 107.69 87.1284 105.643 87.1284 103.592C87.1284 101.54 86.2396 99.4937 83.9243 99.4937C81.6089 99.4937 80.7251 101.543 80.7251 103.592C80.7251 105.641 81.6089 107.69 83.9243 107.69Z" fill="#BFD730"/>
<path d="M102.632 47.2792L86.7547 32.7539L74.284 21.3907L50.7919 0L26.368 22.734V15.7041H16.2455V32.1544L0 47.2792H10.673L50.6631 10.1135L64.5402 22.5088L64.5756 22.6176L67.6636 25.299L69.8174 27.2266L69.8401 27.1963L92.9257 47.2792H102.632Z" fill="#034EA2"/>
<path d="M21.0025 116.974C20.8233 115.668 19.8133 114.985 18.4069 114.985C16.2455 114.985 15.4173 116.898 15.4173 118.813C15.4173 120.728 16.2455 122.637 18.4069 122.637C19.9749 122.637 20.8763 121.737 21.0025 120.255H24.3506C24.1739 123.576 21.7423 125.526 18.4801 125.526C14.5892 125.526 12.0642 122.546 12.0642 118.813C12.0642 115.079 14.5892 112.096 18.4801 112.096C21.2575 112.096 24.2622 113.867 24.3506 116.974H21.0025Z" fill="#034EA2"/>
<path d="M25.2369 112.367H28.585V125.256H25.2369V112.367Z" fill="#034EA2"/>
<path d="M30.0115 112.367H35.5437C39.4902 112.367 41.8561 114.768 41.8561 118.757C41.8561 122.979 39.4599 125.256 35.5437 125.256H30.0115V112.367ZM33.3621 122.367H34.9453C37.4879 122.311 38.4954 121.319 38.4954 118.739C38.4954 116.392 37.2329 115.253 34.9453 115.253H33.3621V122.367Z" fill="#034EA2"/>
<path d="M46.2823 112.367H49.6834L54.4934 125.256H51.0014L50.2086 122.941H45.7243L44.9113 125.253H41.4672L46.2823 112.367ZM46.4969 120.462H49.4158L47.9917 115.947H47.9563L46.4969 120.462Z" fill="#034EA2"/>
<path d="M54.5692 112.367H60.1014C64.0453 112.367 66.4137 114.768 66.4137 118.757C66.4137 122.979 64.0176 125.256 60.1014 125.256H54.5692V112.367ZM57.9198 122.367H59.5156C62.0405 122.311 63.0505 121.319 63.0505 118.739C63.0505 116.392 61.788 115.253 59.5156 115.253H57.9274L57.9198 122.367Z" fill="#034EA2"/>
<path d="M70.8399 112.367H74.2436L79.0536 125.256H75.5616L74.7688 122.941H70.2794L69.4689 125.253H66.0299L70.8399 112.367ZM75.9555 109.066C75.7939 110.29 75.1803 111.358 73.8118 111.358C73.3095 111.34 72.8147 111.229 72.3524 111.031C71.9891 110.86 71.6001 110.75 71.201 110.705C70.7869 110.705 70.4763 111.102 70.4056 111.517H69.128C69.2719 110.343 70.0269 109.066 71.3096 109.066C71.8068 109.099 72.2941 109.221 72.7488 109.425C73.1159 109.617 73.5129 109.744 73.9229 109.802C74.1139 109.784 74.2931 109.701 74.4308 109.567C74.5685 109.433 74.6565 109.257 74.6804 109.066H75.9555ZM71.0571 120.449H73.9734L72.5519 115.934H72.514L71.0571 120.449Z" fill="#034EA2"/>
<path d="M84.9847 112.096C89.0398 112.096 91.3249 115.074 91.3249 118.813C91.3249 122.551 89.0398 125.526 84.9847 125.526C80.9297 125.526 78.6395 122.546 78.6395 118.813C78.6395 115.079 80.9271 112.096 84.9847 112.096ZM84.9847 122.637C87.1461 122.637 87.9743 120.725 87.9743 118.813C87.9743 116.9 87.1461 114.985 84.9847 114.985C82.8234 114.985 81.9876 116.898 81.9876 118.813C81.9876 120.728 82.8208 122.637 84.9847 122.637Z" fill="#034EA2"/>
</g>
<defs>
<clipPath id="clip0_3_32">
<rect width="102.632" height="125.526" fill="white"/>
</clipPath>
</defs>
</svg>
