<svg width="24" height="24" viewBox="0 0 24 24" fill="none" xmlns="http://www.w3.org/2000/svg">
<path d="M12 0C8.8174 -3.79521e-08 5.76515 1.26428 3.51472 3.51472C1.26428 5.76515 2.78232e-07 8.8174 0 12C-2.78231e-07 15.1826 1.26428 18.2348 3.51472 20.4853C5.76515 22.7357 8.8174 24 12 24L12 12V0Z" fill="white" fill-opacity="0.75"/>
<path d="M12 24C15.1826 24 18.2348 22.7357 20.4853 20.4853C22.7357 18.2348 24 15.1826 24 12C24 8.81741 22.7357 5.76516 20.4853 3.51472C18.2348 1.26429 15.1826 4.9512e-06 12 4.67297e-06L12 12L12 24Z" fill="white" fill-opacity="0.75"/>
</svg>
