<svg width="21" height="20" viewBox="0 0 21 20" fill="none" xmlns="http://www.w3.org/2000/svg">
<path d="M4.13624 12.9025C3.2874 12.9025 2.52036 13.2176 1.9681 13.7181C0.761306 14.8117 0.0454102 19.3902 0.0454102 19.3902C0.0454102 19.3902 5.09759 18.7414 6.30439 17.6478C6.85665 17.1473 7.20437 16.4522 7.20437 15.6829C7.20437 14.1444 5.83394 12.9025 4.13624 12.9025ZM4.86237 16.341C4.57601 16.6005 2.64309 17.0454 2.64309 17.0454C2.64309 17.0454 3.12376 15.3029 3.42035 15.0341C3.59421 14.858 3.84989 14.7561 4.13624 14.7561C4.69873 14.7561 5.15895 15.1732 5.15895 15.6829C5.15895 15.9424 5.04645 16.1741 4.86237 16.341ZM15.8156 11.6512C22.32 5.75664 20.1519 1.16887 20.1519 1.16887C20.1519 1.16887 15.0895 -0.795994 8.58503 5.0986L6.03848 4.63519C5.37372 4.5147 4.67828 4.70934 4.18738 5.14494L0.0454102 8.90784L5.15895 10.8912L9.42365 14.7561L11.6122 19.3902L15.7542 15.6366C16.2349 15.201 16.4497 14.5707 16.3167 13.959L15.8156 11.6512ZM5.57826 9.0376L3.62489 8.2776L5.63963 6.45176L7.11233 6.72054C6.52938 7.48981 6.0078 8.29614 5.57826 9.0376ZM12.3077 16.1463L11.4691 14.3761C12.2872 13.9868 13.177 13.5142 14.0156 12.9859L14.3122 14.3205L12.3077 16.1463ZM14.3633 10.3444C13.0134 11.5678 10.9066 12.5688 10.2316 12.8746L7.23505 10.1591C7.56232 9.55662 8.66684 7.64737 10.027 6.41469C14.8133 2.07716 18.4439 2.71667 18.4439 2.71667C18.4439 2.71667 19.1496 6.00689 14.3633 10.3444ZM13.3406 9.19516C14.4656 9.19516 15.386 8.36102 15.386 7.34151C15.386 6.32201 14.4656 5.48787 13.3406 5.48787C12.2156 5.48787 11.2952 6.32201 11.2952 7.34151C11.2952 8.36102 12.2156 9.19516 13.3406 9.19516Z" fill="#8CB81A"/>
</svg>
