<svg width="21" height="21" viewBox="0 0 21 21" fill="none" xmlns="http://www.w3.org/2000/svg">
<path d="M4.07818 13.1954C3.23737 13.1954 2.47759 13.5399 1.93056 14.0869C0.735183 15.2823 0.026062 20.2866 0.026062 20.2866C0.026062 20.2866 5.03043 19.5775 6.2258 18.3821C6.77284 17.8351 7.11727 17.0753 7.11727 16.2345C7.11727 14.5529 5.75981 13.1954 4.07818 13.1954ZM4.79743 16.9538C4.51378 17.2374 2.59916 17.7237 2.59916 17.7237C2.59916 17.7237 3.07528 15.8192 3.36906 15.5254C3.54127 15.3329 3.79453 15.2215 4.07818 15.2215C4.63535 15.2215 5.09121 15.6773 5.09121 16.2345C5.09121 16.5182 4.97978 16.7714 4.79743 16.9538ZM15.647 11.8278C22.0898 5.38497 19.9422 0.370475 19.9422 0.370475C19.9422 0.370475 14.9277 -1.77715 8.48486 4.66572L5.96241 4.15921C5.30395 4.02751 4.61509 4.24025 4.12883 4.71637L0.026062 8.82927L5.09121 10.9972L9.31554 15.2215L11.4834 20.2866L15.5862 16.1839C16.0623 15.7077 16.2751 15.0189 16.1434 14.3503L15.647 11.8278ZM5.50655 8.97109L3.57166 8.14041L5.56733 6.14474L7.02609 6.43852C6.44867 7.27934 5.93202 8.16067 5.50655 8.97109ZM12.1723 16.741L11.3416 14.8061C12.152 14.3807 13.0334 13.864 13.864 13.2866L14.1578 14.7454L12.1723 16.741ZM14.2085 10.3995C12.8713 11.7367 10.7844 12.8307 10.1158 13.165L7.14766 10.1969C7.47183 9.53839 8.5659 7.45155 9.91323 6.10422C14.6542 1.36324 18.2505 2.06223 18.2505 2.06223C18.2505 2.06223 18.9494 5.65849 14.2085 10.3995ZM13.1954 9.14331C14.3098 9.14331 15.2215 8.23158 15.2215 7.11725C15.2215 6.00292 14.3098 5.09119 13.1954 5.09119C12.0811 5.09119 11.1694 6.00292 11.1694 7.11725C11.1694 8.23158 12.0811 9.14331 13.1954 9.14331Z" fill="#8CB81A"/>
</svg>
