<svg width="32" height="32" viewBox="0 0 32 32" fill="none" xmlns="http://www.w3.org/2000/svg">
<path d="M16 2.66699C19.6227 2.66699 20.0747 2.68033 21.496 2.74699C22.916 2.81366 23.8827 3.03633 24.7334 3.36699C25.6134 3.70566 26.3547 4.16433 27.096 4.90433C27.774 5.57085 28.2986 6.37711 28.6334 7.26699C28.9627 8.11633 29.1867 9.08433 29.2534 10.5043C29.316 11.9257 29.3334 12.3777 29.3334 16.0003C29.3334 19.623 29.32 20.075 29.2534 21.4963C29.1867 22.9163 28.9627 23.883 28.6334 24.7337C28.2996 25.624 27.7748 26.4305 27.096 27.0963C26.4293 27.7741 25.6231 28.2987 24.7334 28.6337C23.884 28.963 22.916 29.187 21.496 29.2537C20.0747 29.3163 19.6227 29.3337 16 29.3337C12.3774 29.3337 11.9254 29.3203 10.504 29.2537C9.08402 29.187 8.11735 28.963 7.26669 28.6337C6.37646 28.2996 5.57006 27.7749 4.90402 27.0963C4.2259 26.4299 3.70126 25.6236 3.36669 24.7337C3.03602 23.8843 2.81335 22.9163 2.74669 21.4963C2.68402 20.075 2.66669 19.623 2.66669 16.0003C2.66669 12.3777 2.68002 11.9257 2.74669 10.5043C2.81335 9.08299 3.03602 8.11766 3.36669 7.26699C3.70034 6.37656 4.22509 5.57009 4.90402 4.90433C5.57025 4.22597 6.37659 3.7013 7.26669 3.36699C8.11735 3.03633 9.08269 2.81366 10.504 2.74699C11.9254 2.68433 12.3774 2.66699 16 2.66699ZM16 9.33366C14.2319 9.33366 12.5362 10.036 11.286 11.2863C10.0357 12.5365 9.33335 14.2322 9.33335 16.0003C9.33335 17.7684 10.0357 19.4641 11.286 20.7144C12.5362 21.9646 14.2319 22.667 16 22.667C17.7681 22.667 19.4638 21.9646 20.7141 20.7144C21.9643 19.4641 22.6667 17.7684 22.6667 16.0003C22.6667 14.2322 21.9643 12.5365 20.7141 11.2863C19.4638 10.036 17.7681 9.33366 16 9.33366ZM24.6667 9.00033C24.6667 8.5583 24.4911 8.13438 24.1785 7.82181C23.866 7.50925 23.442 7.33366 23 7.33366C22.558 7.33366 22.1341 7.50925 21.8215 7.82181C21.5089 8.13438 21.3334 8.5583 21.3334 9.00033C21.3334 9.44235 21.5089 9.86628 21.8215 10.1788C22.1341 10.4914 22.558 10.667 23 10.667C23.442 10.667 23.866 10.4914 24.1785 10.1788C24.4911 9.86628 24.6667 9.44235 24.6667 9.00033ZM16 12.0003C17.0609 12.0003 18.0783 12.4218 18.8284 13.1719C19.5786 13.922 20 14.9395 20 16.0003C20 17.0612 19.5786 18.0786 18.8284 18.8288C18.0783 19.5789 17.0609 20.0003 16 20.0003C14.9392 20.0003 13.9217 19.5789 13.1716 18.8288C12.4214 18.0786 12 17.0612 12 16.0003C12 14.9395 12.4214 13.922 13.1716 13.1719C13.9217 12.4218 14.9392 12.0003 16 12.0003Z" fill="white"/>
</svg>
