<svg width="24" height="24" viewBox="0 0 24 24" fill="none" xmlns="http://www.w3.org/2000/svg">
<path d="M12 0C8.8174 -3.79521e-08 5.76515 1.26428 3.51472 3.51472C1.26428 5.76515 2.78232e-07 8.8174 0 12C-2.78231e-07 15.1826 1.26428 18.2348 3.51472 20.4853C5.76515 22.7357 8.8174 24 12 24L12 12V0Z" fill="#393E46" fill-opacity="0.75"/>
<mask id="path-2-inside-1_5_239" fill="white">
<path d="M12 24C15.1826 24 18.2348 22.7357 20.4853 20.4853C22.7357 18.2348 24 15.1826 24 12C24 8.8174 22.7357 5.76516 20.4853 3.51472C18.2348 1.26428 15.1826 1.13651e-06 12 8.58276e-07L12 12L12 24Z"/>
</mask>
<path d="M12 24C15.1826 24 18.2348 22.7357 20.4853 20.4853C22.7357 18.2348 24 15.1826 24 12C24 8.8174 22.7357 5.76516 20.4853 3.51472C18.2348 1.26428 15.1826 1.13651e-06 12 8.58276e-07L12 12L12 24Z" stroke="#393E46" stroke-opacity="0.75" stroke-width="2" mask="url(#path-2-inside-1_5_239)"/>
</svg>
