<svg width="40" height="40" viewBox="0 0 40 40" fill="none" xmlns="http://www.w3.org/2000/svg">
<path d="M35.905 10.8303C36.6666 13.8003 36.6666 20.0003 36.6666 20.0003C36.6666 20.0003 36.6666 26.2003 35.905 29.1703C35.4816 30.812 34.2433 32.1037 32.675 32.5403C29.8266 33.3337 20 33.3337 20 33.3337C20 33.3337 10.1783 33.3337 7.32498 32.5403C5.74998 32.097 4.51331 30.807 4.09498 29.1703C3.33331 26.2003 3.33331 20.0003 3.33331 20.0003C3.33331 20.0003 3.33331 13.8003 4.09498 10.8303C4.51831 9.18866 5.75665 7.89699 7.32498 7.46033C10.1783 6.66699 20 6.66699 20 6.66699C20 6.66699 29.8266 6.66699 32.675 7.46033C34.25 7.90366 35.4866 9.19366 35.905 10.8303ZM16.6666 25.8337L26.6666 20.0003L16.6666 14.167V25.8337Z" fill="white"/>
</svg>
