<svg width="205" height="250" viewBox="0 0 205 250" fill="none" xmlns="http://www.w3.org/2000/svg">
<g clip-path="url(#clip0_181_3574)">
<path d="M119.903 100.182C120.07 102.577 120.943 104.868 122.413 106.766C123.882 108.664 125.88 110.084 128.156 110.846C130.432 111.608 132.882 111.677 135.197 111.046C137.512 110.415 139.589 109.111 141.163 107.299C142.737 105.487 143.739 103.25 144.042 100.868C144.345 98.4869 143.935 96.0693 142.864 93.921C141.793 91.7728 140.11 89.9904 138.026 88.7993C135.943 87.6082 133.553 87.0619 131.159 87.2294C129.57 87.34 128.018 87.7629 126.592 88.4738C125.165 89.1847 123.893 90.1697 122.848 91.3726C121.803 92.5756 121.004 93.9728 120.499 95.4844C119.994 96.996 119.791 98.5924 119.903 100.182Z" fill="#808080"/>
<path d="M95.2047 165.642L95.1392 165.567L113.991 142.366C115.743 139.641 114.494 136.477 113.487 134.698L92.7267 105.508C92.1306 104.771 91.813 103.848 91.8297 102.9C91.8464 101.953 92.1963 101.042 92.8179 100.327C93.4396 99.6116 94.2932 99.1385 95.2289 98.9905C96.1646 98.8425 97.1225 99.029 97.9344 99.5173L126.305 113.538V113.493C132.026 116.632 136.408 115.055 138.594 113.75L139.787 112.919C140.019 112.727 140.15 112.601 140.15 112.601C140.149 112.623 140.149 112.645 140.15 112.667L163.474 96.4944C164.128 95.9217 164.953 95.5816 165.821 95.5271C166.594 95.468 167.367 95.6331 168.049 96.0027C168.73 96.3723 169.29 96.9307 169.663 97.6108C170.035 98.291 170.203 99.0641 170.147 99.8374C170.091 100.611 169.813 101.352 169.346 101.971L169.407 102.036L150.666 129.287H150.711C150.649 129.353 150.59 129.422 150.535 129.494L149.719 130.673C148.712 132.386 147.609 135.484 149.79 138.809H149.755L168.213 164.443C168.786 165.192 169.087 166.115 169.066 167.058C169.044 168.001 168.701 168.909 168.095 169.631C167.488 170.354 166.652 170.847 165.727 171.031C164.802 171.214 163.842 171.076 163.005 170.64L141.414 157.541C138.504 156.195 135.183 156.036 132.157 157.098L100.171 172.005C99.5696 172.433 98.8618 172.686 98.1258 172.736C97.2742 172.797 96.425 172.587 95.7008 172.134C94.9766 171.682 94.4149 171.011 94.0966 170.218C93.7783 169.426 93.72 168.552 93.93 167.724C94.14 166.897 94.6075 166.157 95.2651 165.612L95.2047 165.642Z" fill="#808080"/>
<path d="M119.903 98.3334C120.07 100.728 120.943 103.019 122.413 104.917C123.882 106.816 125.88 108.235 128.156 108.997C130.432 109.759 132.882 109.828 135.197 109.197C137.512 108.566 139.589 107.262 141.163 105.45C142.737 103.639 143.739 101.401 144.042 99.0192C144.345 96.638 143.935 94.2203 142.864 92.0721C141.793 89.9238 140.11 88.1414 138.026 86.9503C135.943 85.7592 133.553 85.2129 131.159 85.3804C129.57 85.491 128.018 85.9139 126.592 86.6248C125.165 87.3357 123.893 88.3208 122.848 89.5237C121.803 90.7266 121.004 92.1238 120.499 93.6354C119.994 95.147 119.791 96.7434 119.903 98.3334Z" fill="white"/>
<path d="M95.2044 163.793L95.1389 163.713L113.99 140.512C115.743 137.787 114.494 134.628 113.487 132.844L92.7265 103.659C92.2636 103.083 91.9677 102.392 91.8708 101.66C91.7739 100.928 91.8799 100.184 92.1771 99.5081C92.4744 98.8323 92.9515 98.2512 93.5564 97.8281C94.1613 97.4051 94.8707 97.1563 95.6073 97.1091C96.4206 97.0525 97.2319 97.2439 97.9342 97.6583L126.305 111.679V111.634C132.026 114.773 136.408 113.191 138.594 111.886L139.787 111.06C140.019 110.863 140.15 110.742 140.15 110.742C140.149 110.764 140.149 110.786 140.15 110.808L163.474 94.6253C164.227 93.9699 165.196 93.6173 166.194 93.636C167.192 93.6546 168.147 94.043 168.875 94.7261C169.603 95.4091 170.052 96.3381 170.134 97.3331C170.216 98.3281 169.927 99.3183 169.321 100.112L169.381 100.172L150.641 127.423H150.686C150.623 127.486 150.564 127.553 150.51 127.625L149.694 128.809C148.687 130.517 147.584 133.615 149.764 136.94H149.729L168.188 162.579C168.776 163.329 169.089 164.258 169.072 165.211C169.055 166.164 168.71 167.082 168.095 167.81C167.48 168.538 166.633 169.032 165.697 169.208C164.76 169.384 163.792 169.231 162.955 168.776L141.364 155.677C138.453 154.33 135.132 154.171 132.107 155.234L100.12 170.141C99.5354 170.556 98.8508 170.807 98.1369 170.869C97.4229 170.931 96.7054 170.801 96.0583 170.493C95.4112 170.185 94.8579 169.71 94.4555 169.117C94.0531 168.523 93.8161 167.834 93.769 167.118C93.7323 166.491 93.843 165.863 94.0923 165.285C94.3415 164.708 94.7224 164.197 95.2044 163.793Z" fill="white"/>
<path d="M81.2332 98.5701C81.2342 100.787 80.578 102.954 79.3476 104.797C78.1172 106.64 76.3679 108.077 74.3209 108.926C72.274 109.775 70.0214 109.997 67.8482 109.565C65.6749 109.133 63.6786 108.065 62.1118 106.498C60.545 104.931 59.4781 102.934 59.046 100.76C58.614 98.5859 58.8362 96.3326 59.6847 94.285C60.5331 92.2374 61.9695 90.4875 63.8123 89.2567C65.6551 88.0259 67.8214 87.3695 70.0372 87.3705C71.5075 87.3705 72.9634 87.6602 74.3217 88.223C75.6801 88.7858 76.9143 89.6108 77.954 90.6508C78.9936 91.6908 79.8183 92.9254 80.381 94.2842C80.9436 95.643 81.2332 97.0994 81.2332 98.5701Z" fill="#808080"/>
<path d="M108.183 157.249L108.234 157.173L89.3873 137.021C87.5994 134.623 88.5311 131.63 89.3471 129.927L106.597 101.714C107.024 101.097 107.253 100.364 107.252 99.6131C107.253 98.9332 107.069 98.2657 106.719 97.6832C106.368 97.1007 105.865 96.6253 105.263 96.3086C104.662 95.9919 103.985 95.8461 103.307 95.8868C102.628 95.9276 101.974 96.1535 101.414 96.5399L76.2019 111.271V111.231C71.1654 114.491 67.0003 113.317 64.9051 112.239L63.7518 111.553C63.5201 111.392 63.3992 111.286 63.3992 111.286V111.342L40.8812 97.9506C40.2423 97.4699 39.4646 97.21 38.6652 97.21C37.9514 97.2094 37.2525 97.4142 36.6518 97.7999C36.0511 98.1856 35.574 98.736 35.2773 99.3854C34.9806 100.035 34.8768 100.756 34.9783 101.463C35.0798 102.169 35.3823 102.832 35.8498 103.372L35.7994 103.437L54.812 127.318H54.7667C54.7667 127.318 54.8322 127.378 54.943 127.499L55.769 128.537C56.7763 130.048 58.0203 132.829 56.2323 136.023H56.2625L40.9265 160.821C40.4463 161.547 40.2283 162.416 40.3087 163.283C40.3891 164.15 40.7629 164.964 41.3685 165.59C41.9741 166.216 42.775 166.616 43.6389 166.724C44.5027 166.833 45.3777 166.643 46.1191 166.186L65.1469 152.74C67.7426 151.313 70.7912 150.952 73.6484 151.732L104.054 163.395C104.633 163.755 105.301 163.945 105.982 163.944C106.77 163.945 107.538 163.696 108.175 163.232C108.812 162.768 109.286 162.115 109.528 161.365C109.769 160.615 109.767 159.807 109.521 159.058C109.275 158.31 108.798 157.659 108.158 157.198L108.183 157.249Z" fill="#808080"/>
<path d="M80.8905 96.7313C80.8915 98.9476 80.2354 101.114 79.0052 102.958C77.775 104.801 76.026 106.238 73.9793 107.087C71.9327 107.935 69.6804 108.158 67.5072 107.726C65.3341 107.295 63.3378 106.228 61.7708 104.661C60.2038 103.094 59.1365 101.098 58.7039 98.9241C58.2713 96.7505 58.4928 94.4973 59.3404 92.4496C60.1881 90.402 61.6237 88.6517 63.4659 87.4203C65.308 86.1889 67.4738 85.5316 69.6894 85.5316C72.6592 85.5316 75.5075 86.7114 77.608 88.8116C79.7084 90.9118 80.8891 93.7605 80.8905 96.7313Z" fill="white"/>
<path d="M107.841 155.395L107.891 155.319L89.045 135.167C87.252 132.769 88.1888 129.776 88.9997 128.068L106.25 99.8549C106.633 99.2951 106.856 98.6413 106.895 97.964C106.934 97.2867 106.788 96.6116 106.472 96.0114C106.156 95.4111 105.682 94.9086 105.101 94.5578C104.521 94.207 103.856 94.0213 103.177 94.0208C102.427 94.0372 101.698 94.2795 101.087 94.716L75.8495 109.427V109.387C70.8131 112.642 66.658 111.473 64.5527 110.395L63.4095 109.709C63.2857 109.625 63.1663 109.534 63.0519 109.437V109.498L40.5338 96.1267C39.895 95.6423 39.1144 95.382 38.3128 95.3861C37.8236 95.3861 37.3392 95.4825 36.8873 95.67C36.4354 95.8574 36.0249 96.1321 35.6792 96.4783C35.3335 96.8246 35.0594 97.2356 34.8727 97.6879C34.6859 98.1402 34.5902 98.6249 34.5908 99.1143C34.5899 100.011 34.9179 100.877 35.5125 101.548L35.4571 101.608L54.4647 125.494H54.4194L54.6007 125.67L55.4166 126.708C56.4541 128.219 57.678 131.005 55.885 134.199H55.9102L40.5741 158.997C40.159 159.619 39.9397 160.35 39.9446 161.098C39.9457 161.777 40.1274 162.443 40.4709 163.029C40.8144 163.615 41.3074 164.098 41.8994 164.431C42.4914 164.763 43.1611 164.932 43.8398 164.92C44.5185 164.908 45.1818 164.715 45.7617 164.363L64.8247 150.936C67.4184 149.509 70.4657 149.147 73.3212 149.928L103.731 161.597C104.295 161.942 104.941 162.13 105.602 162.142C106.263 162.154 106.915 161.99 107.491 161.666C108.067 161.342 108.547 160.87 108.88 160.299C109.213 159.728 109.389 159.079 109.387 158.418C109.386 157.827 109.246 157.246 108.977 156.72C108.708 156.195 108.319 155.741 107.841 155.395Z" fill="white"/>
<path d="M92.7209 136.316C92.8293 137.868 93.3956 139.354 94.3482 140.585C95.3007 141.816 96.5968 142.736 98.0724 143.23C99.5479 143.724 101.137 143.769 102.638 143.36C104.139 142.95 105.485 142.105 106.506 140.93C107.527 139.755 108.177 138.304 108.373 136.76C108.569 135.216 108.303 133.648 107.609 132.255C106.914 130.862 105.823 129.707 104.472 128.935C103.121 128.162 101.571 127.808 100.019 127.917C97.9383 128.064 96.0012 129.031 94.6329 130.606C93.2646 132.181 92.577 134.234 92.7209 136.316Z" fill="#808080"/>
<path d="M76.6999 178.771L76.6596 178.721L88.8881 163.677C90.0213 161.909 89.2155 159.853 88.5658 158.705L75.0933 139.767C74.7616 139.358 74.5661 138.856 74.5342 138.331C74.5075 137.987 74.5492 137.641 74.6571 137.313C74.7649 136.985 74.9367 136.682 75.1625 136.421C75.3882 136.16 75.6635 135.946 75.9724 135.792C76.2812 135.638 76.6175 135.547 76.9618 135.525C77.4897 135.484 78.0172 135.607 78.4727 135.877L96.8659 144.946V144.916C100.578 146.956 103.413 145.923 104.839 145.082L105.619 144.593C105.701 144.531 105.779 144.464 105.851 144.392V144.432L120.96 133.938C121.449 133.516 122.076 133.29 122.722 133.303C123.367 133.316 123.985 133.568 124.456 134.01C124.927 134.451 125.217 135.052 125.272 135.695C125.327 136.338 125.142 136.979 124.753 137.494L124.793 137.54L112.67 155.198H112.706C112.663 155.239 112.625 155.282 112.59 155.329L112.061 156.095C111.555 156.883 111.289 157.802 111.297 158.739C111.305 159.676 111.587 160.59 112.106 161.37L124.073 177.996C124.395 178.41 124.584 178.912 124.617 179.436C124.643 179.789 124.599 180.143 124.487 180.478C124.376 180.813 124.199 181.123 123.967 181.389C123.736 181.656 123.453 181.874 123.137 182.031C122.82 182.188 122.476 182.28 122.124 182.303C121.63 182.341 121.136 182.238 120.698 182.006L106.627 173.537C104.739 172.662 102.585 172.559 100.623 173.25L79.8829 182.918C79.4912 183.191 79.0343 183.356 78.5583 183.396C77.8653 183.443 77.1819 183.214 76.6579 182.758C76.134 182.301 75.8122 181.656 75.7631 180.963C75.7328 180.549 75.8021 180.135 75.965 179.753C76.128 179.372 76.38 179.035 76.6999 178.771Z" fill="#808080"/>
<path d="M92.7211 134.366C92.8324 135.918 93.4011 137.402 94.3553 138.63C95.3094 139.859 96.6063 140.777 98.0819 141.269C99.5575 141.76 101.146 141.803 102.646 141.392C104.146 140.981 105.491 140.135 106.51 138.96C107.529 137.785 108.177 136.334 108.373 134.79C108.568 133.247 108.301 131.68 107.607 130.288C106.912 128.896 105.82 127.741 104.47 126.969C103.119 126.198 101.57 125.844 100.019 125.952C98.9867 126.023 97.9786 126.297 97.0525 126.759C96.1265 127.221 95.3007 127.861 94.6226 128.642C93.9446 129.424 93.4275 130.332 93.1012 131.314C92.7749 132.297 92.6457 133.334 92.7211 134.366Z" fill="white"/>
<path d="M76.7002 176.837L76.6599 176.781L88.8884 161.723C90.0216 159.954 89.2158 157.904 88.5661 156.745L75.0936 137.817C74.7609 137.407 74.5653 136.903 74.5345 136.376C74.4992 135.899 74.595 135.422 74.8117 134.996C75.0284 134.571 75.3576 134.212 75.7636 133.96C76.1695 133.708 76.6367 133.573 77.1144 133.568C77.5921 133.563 78.062 133.689 78.473 133.932L96.8662 143.026V142.996C100.578 145.011 103.414 144.004 104.839 143.162L105.62 142.628C105.702 142.564 105.779 142.493 105.851 142.417V142.462L120.961 131.973C121.446 131.535 122.078 131.295 122.731 131.301C123.385 131.307 124.012 131.558 124.49 132.004C124.967 132.451 125.26 133.06 125.309 133.712C125.359 134.364 125.162 135.011 124.758 135.525L124.798 135.565L112.671 153.243H112.706C112.706 153.243 112.661 153.289 112.59 153.374L112.061 154.14C111.556 154.929 111.291 155.848 111.299 156.784C111.307 157.721 111.587 158.635 112.107 159.415L124.073 176.041C124.395 176.457 124.585 176.961 124.617 177.487C124.652 177.964 124.559 178.441 124.348 178.87C124.136 179.299 123.814 179.663 123.414 179.925C123.014 180.187 122.552 180.338 122.074 180.361C121.597 180.384 121.122 180.279 120.699 180.056L106.627 171.582C104.739 170.709 102.585 170.608 100.623 171.3L79.8832 180.963C79.3321 181.365 78.646 181.535 77.9712 181.438C77.2964 181.34 76.6863 180.983 76.2711 180.442C75.8558 179.901 75.6683 179.219 75.7484 178.542C75.8286 177.865 76.1701 177.246 76.7002 176.817V176.837Z" fill="white"/>
<path d="M44.4767 202.385C44.099 199.614 41.9585 198.153 38.9366 198.153C34.3182 198.153 32.5504 202.234 32.5504 206.315C32.5504 210.396 34.3182 214.476 38.9366 214.476C42.2909 214.476 44.2098 212.557 44.4767 209.398H51.6385C51.2558 216.482 46.0632 220.633 39.0927 220.633C30.7775 220.633 25.3936 214.285 25.3936 206.315C25.3936 198.344 30.7775 191.996 39.0927 191.996C45.0206 191.996 51.4421 195.77 51.6385 202.385H44.4767Z" fill="white"/>
<path d="M60.987 192.576H68.2596L78.539 220.059H71.075L69.3576 215.126H59.7883L58.0557 220.049H50.7227L60.987 192.576ZM61.4503 209.816H67.6905L64.6434 200.194H64.5679L61.4503 209.816Z" fill="white"/>
<path d="M84.2751 210.824C84.4262 214.053 86.4257 215.091 89.4677 215.091C91.6233 215.091 93.8595 214.32 93.8595 212.28C93.8595 209.862 89.9311 209.398 85.9674 208.28C82.0037 207.161 77.9091 205.393 77.9091 200.35C77.9091 194.344 83.9528 191.996 89.1152 191.996C94.5797 191.996 100.085 194.646 100.12 200.848H92.9731C93.0839 198.329 90.7369 197.533 88.546 197.533C87.0049 197.533 85.081 198.077 85.081 199.886C85.081 202.007 89.0497 202.405 93.0486 203.503C97.0476 204.602 101.016 206.471 101.016 211.433C101.016 218.406 95.0884 220.633 89.0497 220.633C82.734 220.633 77.1536 217.867 77.1133 210.824H84.2751Z" fill="white"/>
<path d="M109.905 192.576H117.203L127.477 220.059H119.988L118.296 215.126H108.727L106.994 220.049H99.6309L109.905 192.576ZM110.369 209.816H116.604L113.557 200.194H113.481L110.369 209.816Z" fill="white"/>
<path d="M127.608 192.576H139.424C147.85 192.576 152.891 197.695 152.891 206.204C152.891 215.212 147.774 220.059 139.424 220.059H127.608V192.576ZM134.765 213.902H138.155C143.579 213.786 145.709 211.665 145.709 206.164C145.709 201.156 143.015 198.732 138.155 198.732H134.765V213.902Z" fill="white"/>
<path d="M167.402 191.996C176.064 191.996 180.95 198.349 180.95 206.315C180.95 214.28 176.064 220.633 167.402 220.633C158.739 220.633 153.854 214.285 153.854 206.315C153.854 198.344 158.739 191.996 167.402 191.996ZM167.402 214.476C172.02 214.476 173.793 210.401 173.793 206.315C173.793 202.229 172.02 198.153 167.402 198.153C162.783 198.153 161.02 202.234 161.02 206.315C161.02 210.396 162.783 214.476 167.402 214.476Z" fill="white"/>
<path d="M204.717 94.1619L173.048 65.2332L148.173 42.6021L101.313 0L52.5957 45.2773V31.2765H32.4046V64.0391L0 94.1619H21.2891L101.057 20.1423L128.737 44.8289L128.807 45.0455L134.967 50.3859L139.263 54.2249L139.308 54.1645L185.357 94.1619H204.717Z" fill="white"/>
<path d="M41.8935 232.966C41.5359 230.367 39.5213 229.006 36.716 229.006C32.4048 229.006 30.7529 232.815 30.7529 236.629C30.7529 240.443 32.4048 244.247 36.716 244.247C39.8437 244.247 41.6417 242.453 41.8935 239.501H48.5719C48.2193 246.116 43.3692 250 36.8621 250C29.1009 250 24.0645 244.065 24.0645 236.629C24.0645 229.193 29.1009 223.253 36.8621 223.253C42.4022 223.253 48.3956 226.779 48.5719 232.966H41.8935Z" fill="white"/>
<path d="M50.3398 223.792H57.0182V249.461H50.3398V223.792Z" fill="white"/>
<path d="M59.8633 223.792H70.8982C78.7702 223.792 83.4893 228.573 83.4893 236.518C83.4893 244.927 78.7097 249.461 70.8982 249.461H59.8633V223.792ZM66.5467 243.707H69.7045C74.7762 243.597 76.7858 241.622 76.7858 236.483C76.7858 231.807 74.2676 229.54 69.7045 229.54H66.5467V243.707Z" fill="white"/>
<path d="M92.3184 223.792H99.1025L108.697 249.461H101.732L100.15 244.851H91.2053L89.5836 249.456H82.7139L92.3184 223.792ZM92.7465 239.914H98.5686L95.7281 230.921H95.6576L92.7465 239.914Z" fill="white"/>
<path d="M108.848 223.792H119.883C127.749 223.792 132.474 228.573 132.474 236.518C132.474 244.927 127.694 249.461 119.883 249.461H108.848V223.792ZM115.531 243.707H118.714C123.751 243.597 125.765 241.622 125.765 236.483C125.765 231.807 123.247 229.54 118.714 229.54H115.546L115.531 243.707Z" fill="white"/>
<path d="M141.302 223.792H148.092L157.686 249.461H150.721L149.139 244.851H140.184L138.568 249.456H131.708L141.302 223.792ZM151.506 217.217C151.184 219.656 149.96 221.782 147.23 221.782C146.228 221.746 145.242 221.525 144.319 221.132C143.595 220.79 142.819 220.571 142.023 220.482C141.197 220.482 140.577 221.273 140.436 222.099H137.888C138.175 219.761 139.681 217.217 142.239 217.217C143.231 217.283 144.203 217.526 145.11 217.933C145.842 218.315 146.634 218.568 147.452 218.683C147.833 218.647 148.19 218.482 148.465 218.216C148.74 217.949 148.915 217.597 148.963 217.217H151.506ZM141.736 239.889H147.553L144.717 230.896H144.642L141.736 239.889Z" fill="white"/>
<path d="M169.517 223.253C177.606 223.253 182.164 229.183 182.164 236.629C182.164 244.075 177.606 250 169.517 250C161.428 250 156.86 244.065 156.86 236.629C156.86 229.193 161.423 223.253 169.517 223.253ZM169.517 244.247C173.828 244.247 175.48 240.438 175.48 236.629C175.48 232.82 173.828 229.006 169.517 229.006C165.206 229.006 163.539 232.815 163.539 236.629C163.539 240.443 165.201 244.247 169.517 244.247Z" fill="white"/>
</g>
<defs>
<clipPath id="clip0_181_3574">
<rect width="204.717" height="250" fill="white"/>
</clipPath>
</defs>
</svg>
